<?xml version="1.0"?>

<svg version="1.1" id="Layer_1" xmlns="http://www.w3.org/2000/svg" xmlns:xlink="http://www.w3.org/1999/xlink" x="0px" y="0px" viewBox="0 0 1000 1000" style="enable-background:new 0 0 1000 1000;" xml:space="preserve">

<rect x="-51.62" y="-47.47" class="st0" width="1103.24" height="1103.24"></rect>
<g>
&#x9;<g>
&#x9;&#x9;<defs>
&#x9;&#x9;&#x9;<path id="SVGID_19_" d="M693.63,441.41c-9.44-6.22-22.25-5.9-36.07,0.9c-0.23,0.11-0.9,0.42-1.88,0.92&#xA;&#x9;&#x9;&#x9;&#x9;c-26.95,13.89-45.14,43.79-45.14,43.79c-9.02,14.83-15.63,27.98-16.6,46.37c-0.81,15.38,3.95,27.28,13.39,33.5&#xA;&#x9;&#x9;&#x9;&#x9;c6.43,4.24,14.41,5.44,23.21,3.63c4.13-0.85,8.44-2.36,12.86-4.54c0,0,2.77-1.34,5.56-3.04c25.49-15.59,41.46-41.67,41.46-41.67&#xA;&#x9;&#x9;&#x9;&#x9;c9-14.69,15.63-27.95,16.6-46.37C707.82,459.53,703.07,447.63,693.63,441.41z M663.97,542.29c-11.44,9.32-31.45,16.31-42.68,8.84&#xA;&#x9;&#x9;&#x9;&#x9;c-17.61-11.72-6.44-54.28,4.78-72.26c3.79-6.07,7.35-9.98,10.98-12.92c11.42-9.27,31.39-16.24,42.6-8.77&#xA;&#x9;&#x9;&#x9;&#x9;c16.69,11.12,8.72,50.7-4.78,72.26C670.17,536.95,665.98,540.65,663.97,542.29z"></path>
&#x9;&#x9;</defs>
&#x9;&#x9;<clipPath id="SVGID_2_">
&#x9;&#x9;&#x9;<use xlink:href="#SVGID_19_" style="overflow:visible;"></use>
&#x9;&#x9;</clipPath>
&#x9;&#x9;<g class="st2">
&#x9;&#x9;&#x9;<g>
&#x9;&#x9;&#x9;&#x9;<defs>
&#x9;&#x9;&#x9;&#x9;&#x9;<rect id="SVGID_21_" x="588.85" y="431.96" width="123.25" height="144.39"></rect>
&#x9;&#x9;&#x9;&#x9;</defs>
&#x9;&#x9;&#x9;&#x9;<clipPath id="SVGID_4_">
&#x9;&#x9;&#x9;&#x9;&#x9;<use xlink:href="#SVGID_21_" style="overflow:visible;"></use>
&#x9;&#x9;&#x9;&#x9;</clipPath>
&#x9;&#x9;&#x9;&#x9;<g class="st3">
&#x9;&#x9;&#x9;&#x9;&#x9;<defs>
&#x9;&#x9;&#x9;&#x9;&#x9;&#x9;<rect id="SVGID_23_" x="588.85" y="431.96" width="123.25" height="144.39"></rect>
&#x9;&#x9;&#x9;&#x9;&#x9;</defs>
&#x9;&#x9;&#x9;&#x9;&#x9;<clipPath id="SVGID_6_">
&#x9;&#x9;&#x9;&#x9;&#x9;&#x9;<use xlink:href="#SVGID_23_" style="overflow:visible;"></use>
&#x9;&#x9;&#x9;&#x9;&#x9;</clipPath>
&#x9;&#x9;&#x9;&#x9;&#x9;<g style="clip-path:url(#SVGID_6_);">
&#x9;&#x9;&#x9;&#x9;&#x9;&#x9;
&#x9;&#x9;&#x9;&#x9;&#x9;&#x9;&#x9;<image style="overflow:visible;" width="258" height="302" transform="matrix(0.48 0 0 0.48 588.6161 431.6609)">
&#x9;&#x9;&#x9;&#x9;&#x9;&#x9;</image>
&#x9;&#x9;&#x9;&#x9;&#x9;</g>
&#x9;&#x9;&#x9;&#x9;</g>
&#x9;&#x9;&#x9;</g>
&#x9;&#x9;</g>
&#x9;</g>
</g>
<g>
&#x9;<g>
&#x9;&#x9;<g>
&#x9;&#x9;&#x9;<path class="st4" d="M723.61,450.36c1.34-0.02,2.22,0.62,2.24,1.76c0.01,0.85-0.45,1.42-1.29,1.69l1.35,2.11l-1.08,0.02&#xA;&#x9;&#x9;&#x9;&#x9;l-1.25-2.01l-1.24,0.02l0.03,2.02l-0.9,0.01l-0.08-5.6L723.61,450.36z M723.59,453.18c0.82-0.01,1.32-0.4,1.31-1.01&#xA;&#x9;&#x9;&#x9;&#x9;c-0.01-0.59-0.52-0.97-1.34-0.96l-1.26,0.02l0.03,1.96L723.59,453.18z"></path>
&#x9;&#x9;</g>
&#x9;</g>
&#x9;<g>
&#x9;&#x9;<path class="st4" d="M723.46,458.58c-2.99,0.04-5.45-2.35-5.5-5.34c-0.04-2.99,2.35-5.45,5.34-5.5c2.99-0.04,5.45,2.35,5.5,5.34&#xA;&#x9;&#x9;&#x9;C728.84,456.07,726.44,458.53,723.46,458.58z M723.31,448.44c-2.6,0.04-4.69,2.19-4.65,4.79c0.04,2.6,2.19,4.69,4.79,4.65&#xA;&#x9;&#x9;&#x9;c2.6-0.04,4.69-2.19,4.65-4.79C728.06,450.49,725.91,448.4,723.31,448.44z"></path>
&#x9;</g>
</g>
<g>
&#x9;<g>
&#x9;&#x9;<path class="st1" d="M312.56,490.76v-26.1c0-5.64-2.08-10.93-10.84-10.93c-7.98,0-12.05,5.29-12.05,15.26v21.77h-8.06v-43.36h8.06&#xA;&#x9;&#x9;&#x9;v11.38c1.98-6.11,7.56-10.35,13.87-10.57c6.67-0.23,12.81,4.08,14.92,10.57c0.46-0.88,5.23-9.58,14.7-10.57&#xA;&#x9;&#x9;&#x9;c1.24-0.13,5.92-0.55,10.51,2.33c7.98,5.02,7.93,15.16,7.92,15.84v24.37h-8.15v-23.85c0-7.89-2.08-13.18-10.84-13.18&#xA;&#x9;&#x9;&#x9;c-7.89,0-11.97,5.29-11.97,10.93v26.1H312.56z"></path>
&#x9;&#x9;<path class="st1" d="M359.38,490.76v-61.81h8.06v29.91c0.56-1.03,5.33-9.38,14.89-10.65c1.41-0.19,6.73-0.81,11.93,2.46&#xA;&#x9;&#x9;&#x9;c8.05,5.07,8.45,14.83,8.47,15.72v24.37h-8.06v-23.85c0-7.89-2.51-13.18-13.01-13.18c-9.37,0-14.22,5.29-14.22,15.26v21.77H359.38&#xA;&#x9;&#x9;&#x9;z"></path>
&#x9;&#x9;<path class="st1" d="M404.48,447.41h8.93l11.71,39.02l11.71-39.02h8.93l11.71,38.93l11.79-38.93h8.84l-16.13,43.36h-8.93&#xA;&#x9;&#x9;&#x9;l-11.71-31.39l-11.79,31.39h-8.84L404.48,447.41z"></path>
&#x9;&#x9;<path class="st1" d="M500.47,453.22c-5.64,0-12.49,0.61-12.49,9.19h-7.54c0-11.53,7.72-16.3,19.94-16.3&#xA;&#x9;&#x9;&#x9;c14.13,0,21.07,5.03,21.07,17.86v26.8h-8.15v-9.64c-0.56,1.15-5.47,9.24-15.87,10.94c-5,0.82-13.24,0.12-17.05-5.49&#xA;&#x9;&#x9;&#x9;c-2.32-3.4-2.29-7.57-2.29-7.87c0-8.5,6.68-12.4,19.86-13.87l15.35-1.65v-0.17C513.3,453.82,505.67,453.22,500.47,453.22z&#xA;&#x9;&#x9;&#x9; M498.73,470.82c-6.42,0.78-12.14,2.69-12.14,7.72c0,3.82,2.51,6.42,11.71,6.42c10.93,0,14.57-5.03,15-8.58v-7.11L498.73,470.82z"></path>
&#x9;&#x9;<path class="st1" d="M529.26,490.76v-43.36h8.06v11.38c0.67-1.24,5.25-9.33,14.02-10.57c1.52-0.21,5.15-0.68,8.74,1.29&#xA;&#x9;&#x9;&#x9;c4.85,2.66,7.6,8.66,7.16,15.41h-7.54c0-6.68-2.6-11.19-10.15-11.19c-7.63,0-12.23,5.29-12.23,15.26v21.77H529.26z"></path>
&#x9;</g>
&#x9;<g>
&#x9;&#x9;<path class="st1" d="M272.26,573.07c-0.78,0-1.6-0.04-2.47-0.13c-0.87-0.09-1.75-0.17-2.65-0.22l0.72-7.45&#xA;&#x9;&#x9;&#x9;c0.9,0.06,1.72,0.12,2.47,0.18c0.75,0.06,1.36,0.09,1.84,0.09c2.69,0,4.86-1.02,6.51-3.05c1.64-2.03,2.47-4.88,2.47-8.52v-46.39&#xA;&#x9;&#x9;&#x9;h8.44v46.39c0,3.77-0.75,7.09-2.24,9.96c-1.5,2.87-3.53,5.11-6.1,6.73C278.66,572.26,275.67,573.07,272.26,573.07z"></path>
&#x9;&#x9;<path class="st1" d="M564.38,517.03c-1.71-3.32-4.28-5.73-7.72-7.22c-3.44-1.49-7.7-2.24-12.78-2.24c-3.59,0-6.84,0.27-9.74,0.81&#xA;&#x9;&#x9;&#x9;c-3.05,0.57-5.26,1.13-6.62,1.7l-0.92,5.39c-0.39,2.27-0.72,4.8-0.99,7.58c-0.27,2.78-0.41,5.64-0.41,8.57&#xA;&#x9;&#x9;&#x9;c0,2.99,0.14,5.83,0.41,8.52c0.18,1.83,0.38,3.47,0.58,4.94h-20.46v-18.49c0-4-0.93-7.43-2.78-10.27&#xA;&#x9;&#x9;&#x9;c-1.85-2.84-4.47-5.01-7.85-6.5c-3.38-1.49-7.4-2.24-12.07-2.24c-2.69,0-5.48,0.22-8.35,0.67c-2.87,0.45-5.53,0.97-7.99,1.57&#xA;&#x9;&#x9;&#x9;l0.9,6.82c3.11-0.47,6.06-0.84,8.84-1.08c2.78-0.24,4.92-0.36,6.42-0.36c4.97,0,8.63,0.96,10.99,2.87&#xA;&#x9;&#x9;&#x9;c2.36,1.92,3.54,4.76,3.54,8.52v18.49H339.02v-37.51H320c-5.2,0-9.3,0.81-12.29,2.42c-2.99,1.62-5.13,4.1-6.42,7.45&#xA;&#x9;&#x9;&#x9;c-1.29,3.35-1.93,7.6-1.93,12.74c0,5.08,0.64,9.29,1.93,12.61c1.28,3.32,3.42,5.77,6.42,7.36c2.99,1.59,7.09,2.38,12.29,2.38&#xA;&#x9;&#x9;&#x9;h10.68v2.52c0,3.41-1.1,6.01-3.28,7.8c-2.18,1.8-5.67,2.69-10.45,2.69c-1.5,0-3.29-0.09-5.39-0.27c-2.09-0.18-4.72-0.45-7.9-0.81&#xA;&#x9;&#x9;&#x9;l-1.25,6.73c2.81,0.6,5.4,1.06,7.76,1.39c2.36,0.32,4.62,0.49,6.78,0.49c4.54,0,8.46-0.7,11.75-2.11c3.29-1.4,5.84-3.47,7.63-6.19&#xA;&#x9;&#x9;&#x9;c1.79-2.72,2.69-6,2.69-9.82v-2.43h227.92v-22.07C566.94,524.82,566.09,520.35,564.38,517.03z M330.68,545.07H320&#xA;&#x9;&#x9;&#x9;c-3.23,0-5.73-0.39-7.49-1.17c-1.77-0.78-3.01-2.23-3.73-4.35c-0.72-2.12-1.08-5.25-1.08-9.38c0-4.19,0.36-7.37,1.08-9.56&#xA;&#x9;&#x9;&#x9;c0.72-2.18,1.97-3.65,3.77-4.4c1.8-0.75,4.28-1.12,7.45-1.12h10.68V545.07z M558.51,545.07h-23.89c-0.29-1.77-0.56-3.84-0.79-6.2&#xA;&#x9;&#x9;&#x9;c-0.23-2.39-0.35-4.81-0.35-7.27s0.12-4.92,0.35-7.4c0.24-2.48,0.54-4.8,0.9-6.95c0.08-0.51,0.17-1,0.26-1.47&#xA;&#x9;&#x9;&#x9;c0.46-0.08,0.94-0.17,1.45-0.24c2.45-0.36,4.93-0.54,7.45-0.54c3.71,0,6.64,0.48,8.79,1.44c2.16,0.96,3.66,2.54,4.54,4.76&#xA;&#x9;&#x9;&#x9;c0.87,2.21,1.3,5.29,1.3,9.24V545.07z"></path>
&#x9;</g>
</g>
</svg>